<svg width="64" height="64" fill="none" xmlns="http://www.w3.org/2000/svg"><path d="m36.206 13.897-3.017-9.143L10.88 0 0 12.343l34.011 17.371 2.195-15.817Z" fill="url(#a)"/><path d="m25.6 37.851-.64-19.017L0 12.343l6.126 36.663 19.474-.183V37.85Z" fill="url(#b)"/><path d="M20.206 37.486 21.394 22.4 39.497 3.84 55.68 6.766 64 27.52l-8.686 8.594-14.171-2.285-8.777 9.234-12.16-5.577Z" fill="url(#c)"/><path d="M39.497 3.84 13.532 26.88l5.028 29.623L40.137 64 64 49.737 39.497 3.84Z" fill="url(#d)"/><path d="M12.251 12.251H51.75V51.75h-39.5v-39.5Z" fill="#000"/><path d="M16 44.343h14.811v2.468H16v-2.468Zm-.183-26.972h6.674c3.932 0 6.309 2.286 6.309 5.669v.091c0 3.84-2.926 5.76-6.674 5.76h-2.743v4.938h-3.566V17.37Zm6.491 8.229c1.83 0 2.835-1.097 2.835-2.469v-.091c0-1.646-1.097-2.469-2.926-2.469h-2.743V25.6h2.834Zm7.406 5.851 2.103-2.56c1.463 1.189 3.017 2.012 4.937 2.012 1.463 0 2.377-.549 2.377-1.554v-.092c0-.914-.548-1.371-3.291-2.103-3.292-.823-5.486-1.737-5.486-5.028v-.092c0-3.017 2.377-4.937 5.76-4.937 2.377 0 4.48.731 6.126 2.103l-1.92 2.743c-1.463-1.006-2.926-1.646-4.297-1.646-1.372 0-2.103.64-2.103 1.463v.091c0 1.098.731 1.463 3.566 2.195 3.291.914 5.211 2.102 5.211 4.937v.091c0 3.292-2.469 5.12-6.034 5.12a11.266 11.266 0 0 1-6.949-2.743Z" fill="#fff"/><defs><linearGradient id="a" x1=".902" y1="92.251" x2="60.836" y2="27.277" gradientUnits="userSpaceOnUse"><stop offset=".016" stop-color="#765AF8"/><stop offset=".382" stop-color="#B345F1"/><stop offset=".758" stop-color="#FA3293"/><stop offset=".941" stop-color="#FF318C"/></linearGradient><linearGradient id="b" x1="6.24" y1="55.667" x2="46.446" y2="-20.391" gradientUnits="userSpaceOnUse"><stop offset=".016" stop-color="#765AF8"/><stop offset=".382" stop-color="#B345F1"/><stop offset=".758" stop-color="#FA3293"/><stop offset=".941" stop-color="#FF318C"/></linearGradient><linearGradient id="c" x1="38.423" y1="62.963" x2="11.791" y2="6.354" gradientUnits="userSpaceOnUse"><stop offset=".183" stop-color="#765AF8"/><stop offset=".238" stop-color="#8655F6"/><stop offset=".345" stop-color="#9F4CF3"/><stop offset=".443" stop-color="#AE47F2"/><stop offset=".522" stop-color="#B345F1"/></linearGradient><linearGradient id="d" x1="56.193" y1="51.685" x2="17.561" y2="16.077" gradientUnits="userSpaceOnUse"><stop offset=".016" stop-color="#765AF8"/><stop offset=".382" stop-color="#B345F1"/></linearGradient></defs></svg>