<svg width="64" height="57" fill="none" xmlns="http://www.w3.org/2000/svg"><path d="M32 0 13.964 1.872 0 20.278l32 36.589 32-36.59L50.036 1.873 32 0Z" fill="#FDB300"/><path d="m0 20.278 32 36.589-19.038-36.589H0Zm51.038 0L32 56.867l32-36.59-12.962.001Z" fill="#EB6C00"/><path d="M12.961 20.278 32 56.867l19.038-36.589H12.962Z" fill="#FDAD00"/><path d="M13.964 1.872 12.96 20.278 32 0 13.964 1.872Zm37.074 18.406L50.036 1.872 32 0l19.038 20.278Z" fill="#FDD231"/><path d="M51.038 20.278H64L50.036 1.872l1.002 18.406ZM0 20.278h12.961l1.003-18.406L0 20.278Z" fill="#FDAD00"/><path d="M32 0 12.962 20.278h38.076L32 0Z" fill="#FEEEB7"/></svg>