<svg width="65" height="64" fill="none" xmlns="http://www.w3.org/2000/svg"><path fill-rule="evenodd" clip-rule="evenodd" d="M13.672 40.22c0 .878-.175 1.747-.517 2.559a6.673 6.673 0 0 1-1.477 2.17 6.812 6.812 0 0 1-2.21 1.449 6.913 6.913 0 0 1-2.608.507 6.91 6.91 0 0 1-2.605-.509 6.812 6.812 0 0 1-2.21-1.449 6.673 6.673 0 0 1-1.474-2.17 6.575 6.575 0 0 1-.517-2.558c0-.878.175-1.748.517-2.56a6.673 6.673 0 0 1 1.476-2.169 6.812 6.812 0 0 1 2.21-1.449 6.913 6.913 0 0 1 2.606-.507h6.811v6.685h-.002Zm3.404 0c0-.879.175-1.749.517-2.56a6.673 6.673 0 0 1 1.476-2.17 6.812 6.812 0 0 1 2.21-1.449 6.913 6.913 0 0 1 2.606-.507 6.918 6.918 0 0 1 2.606.507 6.812 6.812 0 0 1 2.21 1.45 6.673 6.673 0 0 1 1.476 2.169c.342.811.517 1.681.517 2.56v16.715a6.59 6.59 0 0 1-.517 2.56 6.673 6.673 0 0 1-1.476 2.17 6.812 6.812 0 0 1-2.21 1.449 6.913 6.913 0 0 1-2.606.507c-.895 0-1.78-.172-2.607-.508a6.812 6.812 0 0 1-2.21-1.449 6.673 6.673 0 0 1-1.475-2.17 6.576 6.576 0 0 1-.517-2.559V40.22Z" fill="#E01E5A"/><path fill-rule="evenodd" clip-rule="evenodd" d="M23.885 13.374c-.895 0-1.78-.172-2.607-.508a6.815 6.815 0 0 1-2.21-1.45 6.674 6.674 0 0 1-1.476-2.17 6.576 6.576 0 0 1-.516-2.56c0-.879.175-1.748.517-2.56a6.673 6.673 0 0 1 1.476-2.17 6.813 6.813 0 0 1 2.21-1.449A6.912 6.912 0 0 1 23.884 0c.894 0 1.78.172 2.606.507a6.813 6.813 0 0 1 2.21 1.45 6.673 6.673 0 0 1 1.476 2.17c.342.81.517 1.68.517 2.558v6.691h-6.806l-.003-.002Zm0 3.393c.894 0 1.78.172 2.606.507a6.815 6.815 0 0 1 2.21 1.45 6.674 6.674 0 0 1 1.476 2.17 6.576 6.576 0 0 1 0 5.118 6.673 6.673 0 0 1-1.476 2.17 6.812 6.812 0 0 1-2.21 1.448 6.911 6.911 0 0 1-2.606.508H6.809c-.894 0-1.78-.172-2.606-.507a6.815 6.815 0 0 1-2.21-1.449 6.673 6.673 0 0 1-1.475-2.169 6.575 6.575 0 0 1-.001-5.117 6.672 6.672 0 0 1 1.476-2.17 6.813 6.813 0 0 1 2.21-1.449 6.913 6.913 0 0 1 2.606-.508h17.078l-.002-.002Z" fill="#36C5F0"/><path fill-rule="evenodd" clip-rule="evenodd" d="M51.174 23.452c0-.878.175-1.748.517-2.56a6.672 6.672 0 0 1 1.476-2.17 6.812 6.812 0 0 1 2.211-1.448 6.91 6.91 0 0 1 2.607-.507c.895 0 1.78.172 2.607.507a6.815 6.815 0 0 1 2.21 1.45 6.674 6.674 0 0 1 1.475 2.17 6.593 6.593 0 0 1 0 5.118 6.673 6.673 0 0 1-1.476 2.17 6.812 6.812 0 0 1-2.21 1.448 6.911 6.911 0 0 1-2.606.508h-6.811v-6.686Zm-3.405 0a6.592 6.592 0 0 1-.516 2.56 6.674 6.674 0 0 1-1.476 2.17 6.81 6.81 0 0 1-2.21 1.448 6.911 6.911 0 0 1-2.606.508 6.91 6.91 0 0 1-2.608-.507 6.814 6.814 0 0 1-2.21-1.449 6.674 6.674 0 0 1-1.477-2.17 6.575 6.575 0 0 1-.517-2.56V6.685c0-.878.175-1.748.517-2.56a6.673 6.673 0 0 1 1.477-2.17 6.814 6.814 0 0 1 2.21-1.448A6.912 6.912 0 0 1 40.961 0c.894 0 1.78.172 2.606.507a6.812 6.812 0 0 1 2.21 1.45 6.675 6.675 0 0 1 1.476 2.17c.341.81.517 1.68.516 2.558v16.77-.003Z" fill="#2EB67D"/><path fill-rule="evenodd" clip-rule="evenodd" d="M40.96 50.247c.895 0 1.78.172 2.607.508a6.812 6.812 0 0 1 2.21 1.449 6.673 6.673 0 0 1 1.475 2.17c.342.811.518 1.68.517 2.559a6.576 6.576 0 0 1-.516 2.56 6.674 6.674 0 0 1-1.475 2.17 6.815 6.815 0 0 1-2.21 1.45 6.912 6.912 0 0 1-2.607.508c-.895 0-1.78-.172-2.608-.508a6.815 6.815 0 0 1-2.21-1.45 6.674 6.674 0 0 1-1.475-2.17 6.576 6.576 0 0 1-.516-2.56v-6.686h6.809Zm0-3.342c-.894 0-1.78-.172-2.606-.508a6.814 6.814 0 0 1-2.21-1.449 6.673 6.673 0 0 1-1.475-2.17 6.576 6.576 0 0 1-.517-2.559c0-.878.175-1.748.517-2.56a6.673 6.673 0 0 1 1.476-2.169 6.812 6.812 0 0 1 2.21-1.449 6.913 6.913 0 0 1 2.606-.507h17.076a6.918 6.918 0 0 1 2.606.507 6.81 6.81 0 0 1 2.21 1.45 6.674 6.674 0 0 1 1.476 2.169c.342.811.517 1.681.516 2.56a6.564 6.564 0 0 1-.516 2.558 6.675 6.675 0 0 1-1.476 2.17 6.812 6.812 0 0 1-2.21 1.45 6.913 6.913 0 0 1-2.606.507H40.96Z" fill="#ECB22E"/></svg>